HIERARCHY
ROOT Hips
{
  OFFSET 53.4138 85.051 -6.21599
  CHANNELS 6 Xposition Yposition Zposition Zrotation Xrotation Yrotation
  JOINT spine
  {
    OFFSET 0 6.3926 0.367606
    CHANNELS 3 Zrotation Xrotation Yrotation
    JOINT spine1
    {
      OFFSET 0 9.17611 0
      CHANNELS 3 Zrotation Xrotation Yrotation
      JOINT spine2
      {
        OFFSET 0 8.79238 0
        CHANNELS 3 Zrotation Xrotation Yrotation
        JOINT Neck
        {
          OFFSET 0 22.5737 1.07624
          CHANNELS 3 Zrotation Xrotation Yrotation
          JOINT Head
          {
            OFFSET 0 6.82011 0
            CHANNELS 3 Zrotation Xrotation Yrotation
            End Site
            {
              OFFSET 0 16.5085 -5.44427
            }
          }
        }
        JOINT RightShoulder
        {
          OFFSET -3.70221 9.49509 -0.515508
          CHANNELS 3 Zrotation Xrotation Yrotation
          JOINT RightArm
          {
            OFFSET 0 12.4537 0
            CHANNELS 3 Zrotation Xrotation Yrotation
            JOINT RightArmRoll
            {
              OFFSET 0 6.28686 0
              CHANNELS 3 Zrotation Xrotation Yrotation
              JOINT RightForeArm
              {
                OFFSET 0 18.3114 0
                CHANNELS 3 Zrotation Xrotation Yrotation
                JOINT RightForeArmRoll
                {
                  OFFSET 0 7.05482 0
                  CHANNELS 3 Zrotation Xrotation Yrotation
                  JOINT RightHand
                  {
                    OFFSET 0 14.1575 0
                    CHANNELS 3 Zrotation Xrotation Yrotation
                    End Site
                    {
                      OFFSET 0 0 0
                    }
                  }
                }
              }
            }
          }
        }
        JOINT LeftShoulder
        {
          OFFSET 3.70221 9.49509 -0.515508
          CHANNELS 3 Zrotation Xrotation Yrotation
          JOINT LeftArm
          {
            OFFSET 0 12.4537 0
            CHANNELS 3 Zrotation Xrotation Yrotation
            JOINT LeftArmRoll
            {
              OFFSET 0 6.28686 0
              CHANNELS 3 Zrotation Xrotation Yrotation
              JOINT LeftForeArm
              {
                OFFSET 0 18.3114 0
                CHANNELS 3 Zrotation Xrotation Yrotation
                JOINT LeftForeArmRoll
                {
                  OFFSET 0 7.05482 0
                  CHANNELS 3 Zrotation Xrotation Yrotation
                  JOINT LeftHand
                  {
                    OFFSET 0 14.1575 0
                    CHANNELS 3 Zrotation Xrotation Yrotation
                    End Site
                    {
                      OFFSET 0 0 0
                    }
                  }
                }
              }
            }
          }
        }
      }
    }
  }
  JOINT RightUpLeg
  {
    OFFSET -5.66615 -1.03903 -0.87161
    CHANNELS 3 Zrotation Xrotation Yrotation
    JOINT RightUpLegRoll
    {
      OFFSET 0 16.6005 0
      CHANNELS 3 Zrotation Xrotation Yrotation
      JOINT RightLeg
      {
        OFFSET 0 -20.5572 0
        CHANNELS 3 Zrotation Xrotation Yrotation
        JOINT RightLegRoll
        {
          OFFSET 0 20.6244 0
          CHANNELS 3 Zrotation Xrotation Yrotation
          JOINT RightFoot
          {
            OFFSET 0 17.1664 0
            CHANNELS 3 Zrotation Xrotation Yrotation
            JOINT RightToeBase
            {
              OFFSET 0 14.3502 0
              CHANNELS 3 Zrotation Xrotation Yrotation
              End Site
              {
                OFFSET 0.00608252 6.9497 -0.801061
              }
            }
          }
        }
      }
    }
  }
  JOINT LeftUpLeg
  {
    OFFSET 5.66615 -1.03903 -0.87161
    CHANNELS 3 Zrotation Xrotation Yrotation
    JOINT LeftUpLegRoll
    {
      OFFSET 0 16.6006 0
      CHANNELS 3 Zrotation Xrotation Yrotation
      JOINT LeftLeg
      {
        OFFSET 0 20.5571 0
        CHANNELS 3 Zrotation Xrotation Yrotation
        JOINT LeftLegRoll
        {
          OFFSET 0 20.8151 0
          CHANNELS 3 Zrotation Xrotation Yrotation
          JOINT LeftFoot
          {
            OFFSET 0 16.9757 0
            CHANNELS 3 Zrotation Xrotation Yrotation
            JOINT LeftToeBase
            {
              OFFSET 0 14.3502 0
              CHANNELS 3 Zrotation Xrotation Yrotation
              End Site
              {
                OFFSET -0.0272592 6.94971 -0.801061
              }
            }
          }
        }
      }
    }
  }
}
MOTION
Frames: 5
Frame Time: 0.00208333
55.0198 85.6841 7.79204 -0.366998 -2.45864 1.1842 -0.540242 -1.36565 -0.172502 -1.07865 1.2759 -0.293336 -1.07587 2.92078 -0.275272 8.72791 8.16044 0.292503 -6.1449 7.8291 2.65265 64.2664 -5.79026 -3.8703 109.442 19.1763 -1.50153 2.14188e-006 -1.90076e-006 -7.98973e-006 16.4773 6.66716 -1.09596 4.39665e-006 1.27149e-006 -3 8.02901 -4.95142 0.697689 -50.996 -0.885865 -0.417494 -117.619 17.1504 5.85747 -7.09746e-007 1.83818e-007 5.46834e-006 -11.7106 6.93189 1.23551 -3.31582e-006 2.75115e-006 3 -8.02886 -4.95145 -0.697673 176.966 0.358677 0.605796 180 7.01553e-015 178.948 176.174 8.38792 179.828 4.23967e-007 -5.90834e-006 0.102306 -19.1696 68.7423 20.1679 8.13225 25.2329 -3.48593 -176.39 -1.47852 1.10573 4.54188e-006 -4.6773e-006 -1.09196 -1.20915 -7.28915 0.394926 1.24761e-006 -4.95997e-006 -0.125718 19.6713 69.332 -20.6771 -8.13667 25.377 3.30545 
55.0157 85.6824 7.79222 -0.368237 -2.46088 1.18122 -0.540257 -1.36416 -0.17248 -1.07892 1.27864 -0.293064 -1.07613 2.92353 -0.274994 8.73675 8.15458 0.289981 -6.14835 7.82978 2.65215 64.2701 -5.79499 -3.87316 109.434 19.1737 -1.5043 2.14188e-006 -1.90076e-006 -7.98973e-006 16.4799 6.6771 -1.09759 4.39665e-006 1.27149e-006 -3 8.02901 -4.95142 0.697689 -50.9873 -0.888846 -0.416456 -117.621 17.1549 5.85852 -7.09746e-007 1.83818e-007 5.46834e-006 -11.7093 6.92384 1.23437 -3.31582e-006 2.75115e-006 3 -8.02886 -4.95145 -0.697673 176.968 0.353929 0.604611 180 7.01553e-015 178.948 176.175 8.38191 179.828 4.23967e-007 -5.90834e-006 0.10229 -19.1666 68.7389 20.1646 8.13225 25.2329 -3.48593 -176.389 -1.47943 1.10562 4.54188e-006 -4.6773e-006 -1.09196 -1.2075 -7.29215 0.395054 1.24761e-006 -4.95997e-006 -0.125646 19.6723 69.333 -20.6781 -8.13664 25.3766 3.30479 
55.0203 85.684 7.7928 -0.369481 -2.46324 1.17824 -0.54028 -1.36265 -0.17246 -1.07919 1.28142 -0.292797 -1.0764 2.92631 -0.274723 8.74544 8.14849 0.287544 -6.15159 7.83066 2.65171 64.2738 -5.79984 -3.87607 109.427 19.1713 -1.50707 2.14188e-006 -1.90076e-006 -7.98973e-006 16.4824 6.68713 -1.09925 4.39665e-006 1.27149e-006 -3 8.02901 -4.95142 0.697689 -50.9786 -0.891771 -0.415452 -117.623 17.1594 5.85981 -7.09746e-007 1.83818e-007 5.46834e-006 -11.7081 6.91625 1.23329 -3.31582e-006 2.75115e-006 3 -8.02886 -4.95145 -0.697673 176.971 0.34889 0.603459 180 7.01553e-015 178.948 176.175 8.37559 179.828 4.23967e-007 -5.90834e-006 0.102266 -19.1634 68.7354 20.1612 8.13225 25.2329 -3.48593 -176.388 -1.48064 1.10554 4.54188e-006 -4.6773e-006 -1.09196 -1.20579 -7.29477 0.395188 1.24761e-006 -4.95997e-006 -0.125539 19.6731 69.3338 -20.679 -8.13661 25.3762 3.30412 
55.0112 85.6895 7.78365 -0.370727 -2.46569 1.17526 -0.540309 -1.36113 -0.172442 -1.07945 1.28422 -0.292534 -1.07666 2.92911 -0.274456 8.75402 8.14225 0.285168 -6.15468 7.83169 2.65129 64.2775 -5.80476 -3.87904 109.419 19.1691 -1.50985 2.14188e-006 -1.90076e-006 -7.98973e-006 16.485 6.69723 -1.10093 4.39665e-006 1.27149e-006 -3 8.02901 -4.95142 0.697689 -50.97 -0.894655 -0.414471 -117.625 17.164 5.86126 -7.09746e-007 1.83818e-007 5.46834e-006 -11.707 6.90899 1.23224 -3.31582e-006 2.75115e-006 3 -8.02886 -4.95145 -0.697673 176.973 0.343647 0.602329 180 7.01553e-015 178.948 176.175 8.36906 179.828 4.23967e-007 -5.90834e-006 0.102236 -19.1601 68.7317 20.1576 8.13225 25.2329 -3.48593 -176.387 -1.48206 1.10547 4.54188e-006 -4.6773e-006 -1.09196 -1.20404 -7.29714 0.395325 1.24761e-006 -4.95997e-006 -0.125408 19.6738 69.3345 -20.6797 -8.13658 25.3758 3.30343 
55.0127 85.6846 7.78663 -0.371974 -2.46818 1.17229 -0.54034 -1.35959 -0.172424 -1.07972 1.28704 -0.292274 -1.07692 2.93193 -0.274191 8.76255 8.13592 0.282825 -6.15768 7.8328 2.65089 64.2811 -5.80974 -3.88202 109.411 19.1669 -1.51263 2.14188e-006 -1.90076e-006 -7.98973e-006 16.4875 6.70737 -1.10263 4.39665e-006 1.27149e-006 -3 8.02901 -4.95142 0.697689 -50.9615 -0.897517 -0.413503 -117.627 17.1686 5.8628 -7.09746e-007 1.83818e-007 5.46834e-006 -11.7059 6.90191 1.23121 -3.31582e-006 2.75115e-006 3 -8.02886 -4.95145 -0.697673 176.975 0.338288 0.601213 180 7.01553e-015 178.948 176.176 8.36244 179.827 4.23967e-007 -5.90834e-006 0.102204 -19.1567 68.7279 20.154 8.13225 25.2329 -3.48593 -176.386 -1.4836 1.10541 4.54188e-006 -4.6773e-006 -1.09196 -1.20227 -7.29935 0.395465 1.24761e-006 -4.95997e-006 -0.125263 19.6744 69.3351 -20.6804 -8.13656 25.3754 3.30275 
